<mxfile>
    <diagram id="edaXOgRtY4zmQkyxHP5Q" name="Page-1">
        <mxGraphModel dx="793" dy="1786" grid="1" gridSize="10" guides="1" tooltips="1" connect="1" arrows="1" fold="1" page="1" pageScale="1" pageWidth="827" pageHeight="1169" background="#F4F1DE" math="0" shadow="0">
            <root>
                <mxCell id="0"/>
                <mxCell id="1" parent="0"/>
                <mxCell id="uO5SS3xwyvJrLnkMRzuP-102" style="edgeStyle=orthogonalEdgeStyle;curved=0;rounded=1;sketch=0;orthogonalLoop=1;jettySize=auto;html=1;strokeColor=#522C23;fillColor=#F2CC8F;fontColor=#393C56;" parent="1" source="34" target="uO5SS3xwyvJrLnkMRzuP-67" edge="1">
                    <mxGeometry relative="1" as="geometry"/>
                </mxCell>
                <mxCell id="34" value="Admin" style="swimlane;fontStyle=0;childLayout=stackLayout;horizontal=1;startSize=26;horizontalStack=0;resizeParent=1;resizeParentMax=0;resizeLast=0;collapsible=1;marginBottom=0;rounded=1;strokeColor=#E07A5F;fontColor=#393C56;fillColor=#F2CC8F;" parent="1" vertex="1">
                    <mxGeometry x="220" y="52" width="140" height="38" as="geometry"/>
                </mxCell>
                <mxCell id="uO5SS3xwyvJrLnkMRzuP-103" style="edgeStyle=orthogonalEdgeStyle;curved=0;rounded=1;sketch=0;orthogonalLoop=1;jettySize=auto;html=1;strokeColor=#522C23;fillColor=#F2CC8F;fontColor=#393C56;" parent="1" source="41" target="uO5SS3xwyvJrLnkMRzuP-67" edge="1">
                    <mxGeometry relative="1" as="geometry"/>
                </mxCell>
                <mxCell id="41" value="Explorer" style="swimlane;fontStyle=0;childLayout=stackLayout;horizontal=1;startSize=26;horizontalStack=0;resizeParent=1;resizeParentMax=0;resizeLast=0;collapsible=1;marginBottom=0;rounded=1;strokeColor=#E07A5F;fontColor=#393C56;fillColor=#F2CC8F;" parent="1" vertex="1">
                    <mxGeometry x="220" y="100" width="140" height="38" as="geometry"/>
                </mxCell>
                <mxCell id="50" style="edgeStyle=orthogonalEdgeStyle;rounded=0;orthogonalLoop=1;jettySize=auto;html=1;exitX=1;exitY=0.5;exitDx=0;exitDy=0;entryX=0.25;entryY=0;entryDx=0;entryDy=0;fillColor=#a20025;strokeColor=#6F0000;" parent="1" source="42" target="87" edge="1">
                    <mxGeometry relative="1" as="geometry">
                        <mxPoint x="404.9999999999998" y="290" as="targetPoint"/>
                    </mxGeometry>
                </mxCell>
                <mxCell id="uO5SS3xwyvJrLnkMRzuP-110" style="edgeStyle=orthogonalEdgeStyle;curved=0;rounded=1;sketch=0;orthogonalLoop=1;jettySize=auto;html=1;strokeColor=#522C23;fillColor=#F2CC8F;fontColor=#393C56;" parent="1" source="42" target="uO5SS3xwyvJrLnkMRzuP-67" edge="1">
                    <mxGeometry relative="1" as="geometry"/>
                </mxCell>
                <mxCell id="42" value="Manager" style="swimlane;fontStyle=0;childLayout=stackLayout;horizontal=1;startSize=26;horizontalStack=0;resizeParent=1;resizeParentMax=0;resizeLast=0;collapsible=1;marginBottom=0;rounded=1;strokeColor=#E07A5F;fontColor=#393C56;fillColor=#F2CC8F;" parent="1" vertex="1">
                    <mxGeometry x="220" y="150" width="140" height="38" as="geometry"/>
                </mxCell>
                <mxCell id="53" value="Organise" style="text;html=1;align=center;verticalAlign=middle;whiteSpace=wrap;rounded=0;labelBackgroundColor=none;fontColor=#000000;" parent="1" vertex="1">
                    <mxGeometry x="350" y="230" width="40" height="20" as="geometry"/>
                </mxCell>
                <mxCell id="55" value="Create&amp;nbsp;" style="text;html=1;align=center;verticalAlign=middle;whiteSpace=wrap;rounded=0;labelBackgroundColor=none;fontColor=#000000;" parent="1" vertex="1">
                    <mxGeometry x="510" y="140" width="60" height="20" as="geometry"/>
                </mxCell>
                <mxCell id="56" style="edgeStyle=orthogonalEdgeStyle;rounded=0;orthogonalLoop=1;jettySize=auto;html=1;exitX=1;exitY=0.5;exitDx=0;exitDy=0;fillColor=#a20025;strokeColor=#6F0000;exitPerimeter=0;" parent="1" source="41" edge="1">
                    <mxGeometry relative="1" as="geometry">
                        <mxPoint x="370" y="179" as="sourcePoint"/>
                        <mxPoint x="620" y="165" as="targetPoint"/>
                        <Array as="points">
                            <mxPoint x="490" y="119"/>
                            <mxPoint x="490" y="165"/>
                        </Array>
                    </mxGeometry>
                </mxCell>
                <mxCell id="66" value="A trip may be cancelled, in which case, the system must store the reason why" style="shape=note2;boundedLbl=1;whiteSpace=wrap;html=1;size=18;verticalAlign=top;align=center;strokeColor=#6F0000;fontColor=#ffffff;gradientColor=#EB0036;fillColor=#73001B;" parent="1" vertex="1">
                    <mxGeometry x="520" y="320" width="211" height="70" as="geometry"/>
                </mxCell>
                <mxCell id="uO5SS3xwyvJrLnkMRzuP-67" value="&amp;lt;&amp;lt;abstract&amp;gt;&amp;gt;&lt;br&gt;&lt;b&gt;Actor&lt;/b&gt;&lt;br&gt;{abstract}" style="swimlane;fontStyle=0;align=center;verticalAlign=top;childLayout=stackLayout;horizontal=1;startSize=55;horizontalStack=0;resizeParent=1;resizeParentMax=0;resizeLast=0;collapsible=0;marginBottom=0;html=1;rounded=0;labelBackgroundColor=none;sketch=0;strokeColor=#E07A5F;fillColor=#F2CC8F;fontColor=#393C56;" parent="1" vertex="1">
                    <mxGeometry x="20" y="14.5" width="140" height="209" as="geometry"/>
                </mxCell>
                <mxCell id="uO5SS3xwyvJrLnkMRzuP-14" value="name" style="text;strokeColor=none;fillColor=none;align=left;verticalAlign=top;spacingLeft=4;spacingRight=4;overflow=hidden;rotatable=0;points=[[0,0.5],[1,0.5]];portConstraint=eastwest;rounded=1;fontColor=#393C56;" parent="uO5SS3xwyvJrLnkMRzuP-67" vertex="1">
                    <mxGeometry y="55" width="140" height="26" as="geometry"/>
                </mxCell>
                <mxCell id="uO5SS3xwyvJrLnkMRzuP-75" value="surname" style="text;strokeColor=none;fillColor=none;align=left;verticalAlign=top;spacingLeft=4;spacingRight=4;overflow=hidden;rotatable=0;points=[[0,0.5],[1,0.5]];portConstraint=eastwest;rounded=1;fontColor=#393C56;" parent="uO5SS3xwyvJrLnkMRzuP-67" vertex="1">
                    <mxGeometry y="81" width="140" height="26" as="geometry"/>
                </mxCell>
                <mxCell id="uO5SS3xwyvJrLnkMRzuP-78" value="email (id)" style="text;strokeColor=none;fillColor=none;align=left;verticalAlign=top;spacingLeft=4;spacingRight=4;overflow=hidden;rotatable=0;points=[[0,0.5],[1,0.5]];portConstraint=eastwest;rounded=1;fontColor=#393C56;" parent="uO5SS3xwyvJrLnkMRzuP-67" vertex="1">
                    <mxGeometry y="107" width="140" height="26" as="geometry"/>
                </mxCell>
                <mxCell id="uO5SS3xwyvJrLnkMRzuP-77" value="password" style="text;strokeColor=none;fillColor=none;align=left;verticalAlign=top;spacingLeft=4;spacingRight=4;overflow=hidden;rotatable=0;points=[[0,0.5],[1,0.5]];portConstraint=eastwest;rounded=1;fontColor=#393C56;" parent="uO5SS3xwyvJrLnkMRzuP-67" vertex="1">
                    <mxGeometry y="133" width="140" height="26" as="geometry"/>
                </mxCell>
                <mxCell id="uO5SS3xwyvJrLnkMRzuP-76" value="role" style="text;strokeColor=none;fillColor=none;align=left;verticalAlign=top;spacingLeft=4;spacingRight=4;overflow=hidden;rotatable=0;points=[[0,0.5],[1,0.5]];portConstraint=eastwest;rounded=1;fontColor=#393C56;" parent="uO5SS3xwyvJrLnkMRzuP-67" vertex="1">
                    <mxGeometry y="159" width="140" height="21" as="geometry"/>
                </mxCell>
                <mxCell id="uO5SS3xwyvJrLnkMRzuP-72" value="" style="line;strokeWidth=1;fillColor=none;align=left;verticalAlign=middle;spacingTop=-1;spacingLeft=3;spacingRight=3;rotatable=0;labelPosition=right;points=[];portConstraint=eastwest;" parent="uO5SS3xwyvJrLnkMRzuP-67" vertex="1">
                    <mxGeometry y="180" width="140" height="8" as="geometry"/>
                </mxCell>
                <mxCell id="uO5SS3xwyvJrLnkMRzuP-79" value="" style="text;strokeColor=#C73500;align=left;verticalAlign=top;spacingLeft=4;spacingRight=4;overflow=hidden;rotatable=0;points=[[0,0.5],[1,0.5]];portConstraint=eastwest;rounded=1;fontColor=#ffffff;shadow=0;fillColor=#F2CC8F;" parent="uO5SS3xwyvJrLnkMRzuP-67" vertex="1">
                    <mxGeometry y="188" width="140" height="21" as="geometry"/>
                </mxCell>
                <mxCell id="87" value="&lt;b&gt;Trip&lt;/b&gt;" style="swimlane;fontStyle=0;align=center;verticalAlign=top;childLayout=stackLayout;horizontal=1;startSize=24;horizontalStack=0;resizeParent=1;resizeParentMax=0;resizeLast=0;collapsible=0;marginBottom=0;html=1;rounded=0;labelBackgroundColor=none;sketch=0;strokeColor=#E07A5F;fillColor=#F2CC8F;fontColor=#393C56;" parent="1" vertex="1">
                    <mxGeometry x="370" y="286.5" width="140" height="347" as="geometry"/>
                </mxCell>
                <mxCell id="92" value="+ ticker" style="text;strokeColor=none;fillColor=none;align=left;verticalAlign=top;spacingLeft=4;spacingRight=4;overflow=hidden;rotatable=0;points=[[0,0.5],[1,0.5]];portConstraint=eastwest;rounded=1;fontColor=#393C56;" parent="87" vertex="1">
                    <mxGeometry y="24" width="140" height="21" as="geometry"/>
                </mxCell>
                <mxCell id="112" value="+ title" style="text;strokeColor=none;fillColor=none;align=left;verticalAlign=top;spacingLeft=4;spacingRight=4;overflow=hidden;rotatable=0;points=[[0,0.5],[1,0.5]];portConstraint=eastwest;rounded=1;fontColor=#393C56;" parent="87" vertex="1">
                    <mxGeometry y="45" width="140" height="21" as="geometry"/>
                </mxCell>
                <mxCell id="115" value="+ description" style="text;strokeColor=none;fillColor=none;align=left;verticalAlign=top;spacingLeft=4;spacingRight=4;overflow=hidden;rotatable=0;points=[[0,0.5],[1,0.5]];portConstraint=eastwest;rounded=1;fontColor=#393C56;" parent="87" vertex="1">
                    <mxGeometry y="66" width="140" height="21" as="geometry"/>
                </mxCell>
                <mxCell id="116" value="+ price" style="text;strokeColor=none;fillColor=none;align=left;verticalAlign=top;spacingLeft=4;spacingRight=4;overflow=hidden;rotatable=0;points=[[0,0.5],[1,0.5]];portConstraint=eastwest;rounded=1;fontColor=#393C56;" parent="87" vertex="1">
                    <mxGeometry y="87" width="140" height="21" as="geometry"/>
                </mxCell>
                <mxCell id="117" value="+ list of requirements" style="text;strokeColor=none;fillColor=none;align=left;verticalAlign=top;spacingLeft=4;spacingRight=4;overflow=hidden;rotatable=0;points=[[0,0.5],[1,0.5]];portConstraint=eastwest;rounded=1;fontColor=#393C56;" parent="87" vertex="1">
                    <mxGeometry y="108" width="140" height="21" as="geometry"/>
                </mxCell>
                <mxCell id="118" value="+ start date" style="text;strokeColor=none;fillColor=none;align=left;verticalAlign=top;spacingLeft=4;spacingRight=4;overflow=hidden;rotatable=0;points=[[0,0.5],[1,0.5]];portConstraint=eastwest;rounded=1;fontColor=#393C56;" parent="87" vertex="1">
                    <mxGeometry y="129" width="140" height="21" as="geometry"/>
                </mxCell>
                <mxCell id="113" value="+ publish" style="text;strokeColor=none;fillColor=none;align=left;verticalAlign=top;spacingLeft=4;spacingRight=4;overflow=hidden;rotatable=0;points=[[0,0.5],[1,0.5]];portConstraint=eastwest;rounded=1;fontColor=#393C56;" parent="87" vertex="1">
                    <mxGeometry y="150" width="140" height="21" as="geometry"/>
                </mxCell>
                <mxCell id="167" value="+ end date" style="text;strokeColor=none;fillColor=none;align=left;verticalAlign=top;spacingLeft=4;spacingRight=4;overflow=hidden;rotatable=0;points=[[0,0.5],[1,0.5]];portConstraint=eastwest;rounded=1;fontColor=#393C56;" vertex="1" parent="87">
                    <mxGeometry y="171" width="140" height="21" as="geometry"/>
                </mxCell>
                <mxCell id="168" value="+ stages" style="text;strokeColor=none;fillColor=none;align=left;verticalAlign=top;spacingLeft=4;spacingRight=4;overflow=hidden;rotatable=0;points=[[0,0.5],[1,0.5]];portConstraint=eastwest;rounded=1;fontColor=#393C56;" vertex="1" parent="87">
                    <mxGeometry y="192" width="140" height="21" as="geometry"/>
                </mxCell>
                <mxCell id="206" value="+ sponsorship" style="text;strokeColor=none;fillColor=none;align=left;verticalAlign=top;spacingLeft=4;spacingRight=4;overflow=hidden;rotatable=0;points=[[0,0.5],[1,0.5]];portConstraint=eastwest;rounded=1;fontColor=#393C56;" vertex="1" parent="87">
                    <mxGeometry y="213" width="140" height="21" as="geometry"/>
                </mxCell>
                <mxCell id="207" value="+ picture" style="text;strokeColor=none;fillColor=none;align=left;verticalAlign=top;spacingLeft=4;spacingRight=4;overflow=hidden;rotatable=0;points=[[0,0.5],[1,0.5]];portConstraint=eastwest;rounded=1;fontColor=#393C56;" vertex="1" parent="87">
                    <mxGeometry y="234" width="140" height="21" as="geometry"/>
                </mxCell>
                <mxCell id="208" value="+ cancelled" style="text;strokeColor=none;fillColor=none;align=left;verticalAlign=top;spacingLeft=4;spacingRight=4;overflow=hidden;rotatable=0;points=[[0,0.5],[1,0.5]];portConstraint=eastwest;rounded=1;fontColor=#393C56;whiteSpace=wrap;" vertex="1" parent="87">
                    <mxGeometry y="255" width="140" height="21" as="geometry"/>
                </mxCell>
                <mxCell id="210" value="+ cancel_reason" style="text;strokeColor=none;fillColor=none;align=left;verticalAlign=top;spacingLeft=4;spacingRight=4;overflow=hidden;rotatable=0;points=[[0,0.5],[1,0.5]];portConstraint=eastwest;rounded=1;fontColor=#393C56;whiteSpace=wrap;" vertex="1" parent="87">
                    <mxGeometry y="276" width="140" height="21" as="geometry"/>
                </mxCell>
                <mxCell id="211" value="+ manager_id" style="text;strokeColor=none;fillColor=none;align=left;verticalAlign=top;spacingLeft=4;spacingRight=4;overflow=hidden;rotatable=0;points=[[0,0.5],[1,0.5]];portConstraint=eastwest;rounded=1;fontColor=#393C56;whiteSpace=wrap;" vertex="1" parent="87">
                    <mxGeometry y="297" width="140" height="21" as="geometry"/>
                </mxCell>
                <mxCell id="93" value="" style="line;strokeWidth=1;fillColor=none;align=left;verticalAlign=middle;spacingTop=-1;spacingLeft=3;spacingRight=3;rotatable=0;labelPosition=right;points=[];portConstraint=eastwest;" parent="87" vertex="1">
                    <mxGeometry y="318" width="140" height="8" as="geometry"/>
                </mxCell>
                <mxCell id="94" value="" style="text;strokeColor=#C73500;align=left;verticalAlign=top;spacingLeft=4;spacingRight=4;overflow=hidden;rotatable=0;points=[[0,0.5],[1,0.5]];portConstraint=eastwest;rounded=1;fontColor=#ffffff;shadow=0;fillColor=#F2CC8F;" parent="87" vertex="1">
                    <mxGeometry y="326" width="140" height="21" as="geometry"/>
                </mxCell>
                <mxCell id="144" style="edgeStyle=orthogonalEdgeStyle;rounded=0;orthogonalLoop=1;jettySize=auto;html=1;exitX=0.5;exitY=0;exitDx=0;exitDy=0;" parent="1" source="103" edge="1">
                    <mxGeometry relative="1" as="geometry">
                        <mxPoint x="691" y="90" as="targetPoint"/>
                    </mxGeometry>
                </mxCell>
                <mxCell id="103" value="&lt;font color=&quot;#000000&quot;&gt;&lt;b&gt;Application&lt;/b&gt;&lt;br&gt;&lt;br&gt;&lt;/font&gt;" style="swimlane;fontStyle=0;align=center;verticalAlign=top;childLayout=stackLayout;horizontal=1;startSize=32;horizontalStack=0;resizeParent=1;resizeParentMax=0;resizeLast=0;collapsible=0;marginBottom=0;html=1;rounded=0;labelBackgroundColor=none;sketch=0;strokeColor=#E07A5F;fillColor=#F2CC8F;fontColor=#393C56;" parent="1" vertex="1">
                    <mxGeometry x="621" y="80" width="149" height="195" as="geometry"/>
                </mxCell>
                <mxCell id="104" value="Create_date(timestamp)" style="text;strokeColor=none;fillColor=none;align=left;verticalAlign=top;spacingLeft=4;spacingRight=4;overflow=hidden;rotatable=0;points=[[0,0.5],[1,0.5]];portConstraint=eastwest;rounded=1;fontColor=#393C56;" parent="103" vertex="1">
                    <mxGeometry y="32" width="149" height="26" as="geometry"/>
                </mxCell>
                <mxCell id="105" value="Explorer_id" style="text;strokeColor=none;fillColor=none;align=left;verticalAlign=top;spacingLeft=4;spacingRight=4;overflow=hidden;rotatable=0;points=[[0,0.5],[1,0.5]];portConstraint=eastwest;rounded=1;fontColor=#393C56;" parent="103" vertex="1">
                    <mxGeometry y="58" width="149" height="26" as="geometry"/>
                </mxCell>
                <mxCell id="106" value="Trip_id" style="text;strokeColor=none;fillColor=none;align=left;verticalAlign=top;spacingLeft=4;spacingRight=4;overflow=hidden;rotatable=0;points=[[0,0.5],[1,0.5]];portConstraint=eastwest;rounded=1;fontColor=#393C56;" parent="103" vertex="1">
                    <mxGeometry y="84" width="149" height="30" as="geometry"/>
                </mxCell>
                <mxCell id="156" value="Status" style="text;strokeColor=none;fillColor=none;align=left;verticalAlign=top;spacingLeft=4;spacingRight=4;overflow=hidden;rotatable=0;points=[[0,0.5],[1,0.5]];portConstraint=eastwest;rounded=1;fontColor=#393C56;" parent="103" vertex="1">
                    <mxGeometry y="114" width="149" height="30" as="geometry"/>
                </mxCell>
                <mxCell id="157" value="Comments (opts)" style="text;strokeColor=none;fillColor=none;align=left;verticalAlign=top;spacingLeft=4;spacingRight=4;overflow=hidden;rotatable=0;points=[[0,0.5],[1,0.5]];portConstraint=eastwest;rounded=1;fontColor=#393C56;" parent="103" vertex="1">
                    <mxGeometry y="144" width="149" height="30" as="geometry"/>
                </mxCell>
                <mxCell id="110" value="" style="text;strokeColor=#C73500;align=left;verticalAlign=top;spacingLeft=4;spacingRight=4;overflow=hidden;rotatable=0;points=[[0,0.5],[1,0.5]];portConstraint=eastwest;rounded=1;fontColor=#ffffff;shadow=0;fillColor=#F2CC8F;" parent="103" vertex="1">
                    <mxGeometry y="174" width="149" height="21" as="geometry"/>
                </mxCell>
                <mxCell id="122" style="edgeStyle=orthogonalEdgeStyle;rounded=0;orthogonalLoop=1;jettySize=auto;html=1;fillColor=#a20025;strokeColor=#6F0000;entryX=0.75;entryY=0;entryDx=0;entryDy=0;" parent="1" target="87" edge="1">
                    <mxGeometry relative="1" as="geometry">
                        <mxPoint x="618" y="220" as="sourcePoint"/>
                        <mxPoint x="600" y="190" as="targetPoint"/>
                        <Array as="points">
                            <mxPoint x="618" y="220"/>
                            <mxPoint x="475" y="220"/>
                        </Array>
                    </mxGeometry>
                </mxCell>
                <mxCell id="uO5SS3xwyvJrLnkMRzuP-124" value="&lt;span style=&quot;font-weight: normal&quot;&gt;&amp;lt;&amp;lt;unique&amp;gt;&amp;gt;&lt;br&gt;&lt;/span&gt;Tickers" style="swimlane;fontStyle=1;align=center;verticalAlign=middle;childLayout=stackLayout;horizontal=1;startSize=44;horizontalStack=0;resizeParent=1;resizeParentMax=0;resizeLast=0;collapsible=0;marginBottom=0;html=1;rounded=0;shadow=0;labelBackgroundColor=none;sketch=0;strokeColor=#E07A5F;fillColor=#F2CC8F;fontColor=#393C56;" parent="1" vertex="1">
                    <mxGeometry x="80" y="256" width="140" height="94" as="geometry"/>
                </mxCell>
                <mxCell id="uO5SS3xwyvJrLnkMRzuP-125" value="&lt;font color=&quot;#000000&quot;&gt;YYMMDD-XXXX&lt;/font&gt;" style="text;html=1;strokeColor=none;align=center;verticalAlign=middle;spacingLeft=4;spacingRight=4;overflow=hidden;rotatable=0;points=[[0,0.5],[1,0.5]];portConstraint=eastwest;" parent="uO5SS3xwyvJrLnkMRzuP-124" vertex="1">
                    <mxGeometry y="44" width="140" height="25" as="geometry"/>
                </mxCell>
                <mxCell id="uO5SS3xwyvJrLnkMRzuP-142" value="&lt;font color=&quot;#000000&quot;&gt;&lt;b&gt;search-criteria&lt;/b&gt;&lt;/font&gt;" style="text;html=1;strokeColor=none;align=center;verticalAlign=middle;spacingLeft=4;spacingRight=4;overflow=hidden;rotatable=0;points=[[0,0.5],[1,0.5]];portConstraint=eastwest;" parent="uO5SS3xwyvJrLnkMRzuP-124" vertex="1">
                    <mxGeometry y="69" width="140" height="25" as="geometry"/>
                </mxCell>
                <mxCell id="125" value="Belongs to" style="text;html=1;align=center;verticalAlign=middle;whiteSpace=wrap;rounded=0;labelBackgroundColor=none;fontColor=#000000;" parent="1" vertex="1">
                    <mxGeometry x="520" y="223.5" width="60" height="20" as="geometry"/>
                </mxCell>
                <mxCell id="126" value="&lt;b&gt;Stage&lt;/b&gt;" style="swimlane;fontStyle=0;align=center;verticalAlign=top;childLayout=stackLayout;horizontal=1;startSize=30;horizontalStack=0;resizeParent=1;resizeParentMax=0;resizeLast=0;collapsible=0;marginBottom=0;html=1;rounded=0;labelBackgroundColor=none;sketch=0;strokeColor=#E07A5F;fillColor=#F2CC8F;fontColor=#393C56;" parent="1" vertex="1">
                    <mxGeometry x="360" y="680" width="140" height="122" as="geometry"/>
                </mxCell>
                <mxCell id="128" value="+ title" style="text;strokeColor=none;fillColor=none;align=left;verticalAlign=top;spacingLeft=4;spacingRight=4;overflow=hidden;rotatable=0;points=[[0,0.5],[1,0.5]];portConstraint=eastwest;rounded=1;fontColor=#393C56;" parent="126" vertex="1">
                    <mxGeometry y="30" width="140" height="21" as="geometry"/>
                </mxCell>
                <mxCell id="129" value="+ description" style="text;strokeColor=none;fillColor=none;align=left;verticalAlign=top;spacingLeft=4;spacingRight=4;overflow=hidden;rotatable=0;points=[[0,0.5],[1,0.5]];portConstraint=eastwest;rounded=1;fontColor=#393C56;" parent="126" vertex="1">
                    <mxGeometry y="51" width="140" height="21" as="geometry"/>
                </mxCell>
                <mxCell id="130" value="+ price" style="text;strokeColor=none;fillColor=none;align=left;verticalAlign=top;spacingLeft=4;spacingRight=4;overflow=hidden;rotatable=0;points=[[0,0.5],[1,0.5]];portConstraint=eastwest;rounded=1;fontColor=#393C56;" parent="126" vertex="1">
                    <mxGeometry y="72" width="140" height="21" as="geometry"/>
                </mxCell>
                <mxCell id="135" value="" style="line;strokeWidth=1;fillColor=none;align=left;verticalAlign=middle;spacingTop=-1;spacingLeft=3;spacingRight=3;rotatable=0;labelPosition=right;points=[];portConstraint=eastwest;" parent="126" vertex="1">
                    <mxGeometry y="93" width="140" height="8" as="geometry"/>
                </mxCell>
                <mxCell id="136" value="" style="text;strokeColor=#C73500;align=left;verticalAlign=top;spacingLeft=4;spacingRight=4;overflow=hidden;rotatable=0;points=[[0,0.5],[1,0.5]];portConstraint=eastwest;rounded=1;fontColor=#ffffff;shadow=0;fillColor=#F2CC8F;" parent="126" vertex="1">
                    <mxGeometry y="101" width="140" height="21" as="geometry"/>
                </mxCell>
                <mxCell id="137" value="&lt;div&gt;&lt;span&gt;When an application is&amp;nbsp;&lt;/span&gt;&lt;span&gt;made, the initial status is “PENDING”; later, the corresponding manager can change it to&amp;nbsp;&lt;/span&gt;&lt;span&gt;“REJECTED”, which means that the applicant is denied to enrol the trip, in which case the&lt;/span&gt;&lt;/div&gt;&lt;div&gt;&lt;span&gt;system must record the reason why, or “DUE”, which means that it’s awaiting payment. An&amp;nbsp;&lt;/span&gt;&lt;span&gt;application with status “DUE” changes automatically to status “ACCEPTED” whenever the&amp;nbsp;&lt;/span&gt;&lt;span&gt;corresponding applicant pays the trip. An application with status “ACCEPTED” can change to&amp;nbsp;&lt;/span&gt;&lt;span&gt;status “CANCELLED” by the corresponding applicant.&lt;/span&gt;&lt;/div&gt;" style="shape=note2;boundedLbl=1;whiteSpace=wrap;html=1;size=18;verticalAlign=top;align=left;strokeColor=#6F0000;fontColor=#ffffff;gradientColor=#EB0036;fillColor=#73001B;" parent="1" vertex="1">
                    <mxGeometry x="1050" y="38" width="440" height="150" as="geometry"/>
                </mxCell>
                <mxCell id="138" value="Price of the trips is automatically computed building on the price of the individual stages" style="shape=note2;boundedLbl=1;whiteSpace=wrap;html=1;size=18;verticalAlign=top;align=center;strokeColor=#6F0000;fontColor=#ffffff;gradientColor=#EB0036;fillColor=#73001B;" parent="1" vertex="1">
                    <mxGeometry x="530" y="631" width="211" height="70" as="geometry"/>
                </mxCell>
                <mxCell id="139" style="edgeStyle=orthogonalEdgeStyle;rounded=0;orthogonalLoop=1;jettySize=auto;html=1;exitX=0;exitY=0.5;exitDx=0;exitDy=0;entryX=0.5;entryY=0;entryDx=0;entryDy=0;fillColor=#a20025;strokeColor=#6F0000;" parent="1" source="168" target="126" edge="1">
                    <mxGeometry relative="1" as="geometry">
                        <mxPoint x="415" y="296.5" as="targetPoint"/>
                        <mxPoint x="370" y="179" as="sourcePoint"/>
                        <Array as="points">
                            <mxPoint x="320" y="489"/>
                            <mxPoint x="320" y="650"/>
                            <mxPoint x="430" y="650"/>
                        </Array>
                    </mxGeometry>
                </mxCell>
                <mxCell id="141" value="Has" style="text;html=1;align=center;verticalAlign=middle;whiteSpace=wrap;rounded=0;labelBackgroundColor=none;fontColor=#000000;" parent="1" vertex="1">
                    <mxGeometry x="320" y="550" width="40" height="25" as="geometry"/>
                </mxCell>
                <mxCell id="uO5SS3xwyvJrLnkMRzuP-141" value="Not modifed by anyone&lt;br&gt;YYMMDD - currentyear, mont and day&lt;br&gt;XXX - four random letters" style="shape=note2;boundedLbl=1;whiteSpace=wrap;html=1;size=18;verticalAlign=top;align=center;strokeColor=#10739e;gradientColor=#00CC00;" parent="1" vertex="1">
                    <mxGeometry x="12.25" y="370" width="255.5" height="90" as="geometry"/>
                </mxCell>
                <mxCell id="142" value="" style="endArrow=none;dashed=1;html=1;fontColor=#000000;exitX=1;exitY=0.5;exitDx=0;exitDy=0;entryX=0;entryY=0.5;entryDx=0;entryDy=0;strokeColor=#000000;" parent="1" source="uO5SS3xwyvJrLnkMRzuP-124" target="92" edge="1">
                    <mxGeometry width="50" height="50" relative="1" as="geometry">
                        <mxPoint x="240" y="240" as="sourcePoint"/>
                        <mxPoint x="290" y="190" as="targetPoint"/>
                    </mxGeometry>
                </mxCell>
                <mxCell id="143" value="" style="endArrow=none;dashed=1;html=1;fontColor=#000000;exitX=0.486;exitY=1.027;exitDx=0;exitDy=0;strokeColor=#000000;exitPerimeter=0;entryX=0;entryY=0;entryDx=118.75;entryDy=0;entryPerimeter=0;" parent="1" source="uO5SS3xwyvJrLnkMRzuP-142" target="uO5SS3xwyvJrLnkMRzuP-141" edge="1">
                    <mxGeometry width="50" height="50" relative="1" as="geometry">
                        <mxPoint x="230" y="313" as="sourcePoint"/>
                        <mxPoint x="148" y="380" as="targetPoint"/>
                    </mxGeometry>
                </mxCell>
                <mxCell id="182" value="&lt;b&gt;Sponsorship&lt;/b&gt;" style="swimlane;fontStyle=0;align=center;verticalAlign=top;childLayout=stackLayout;horizontal=1;startSize=24;horizontalStack=0;resizeParent=1;resizeParentMax=0;resizeLast=0;collapsible=0;marginBottom=0;html=1;rounded=0;labelBackgroundColor=none;sketch=0;strokeColor=#E07A5F;fillColor=#F2CC8F;fontColor=#393C56;" vertex="1" parent="1">
                    <mxGeometry x="810" y="380" width="140" height="137" as="geometry"/>
                </mxCell>
                <mxCell id="183" value="+ sponsor_id" style="text;strokeColor=none;fillColor=none;align=left;verticalAlign=top;spacingLeft=4;spacingRight=4;overflow=hidden;rotatable=0;points=[[0,0.5],[1,0.5]];portConstraint=eastwest;rounded=1;fontColor=#393C56;" vertex="1" parent="182">
                    <mxGeometry y="24" width="140" height="21" as="geometry"/>
                </mxCell>
                <mxCell id="184" value="+ banner" style="text;strokeColor=none;fillColor=none;align=left;verticalAlign=top;spacingLeft=4;spacingRight=4;overflow=hidden;rotatable=0;points=[[0,0.5],[1,0.5]];portConstraint=eastwest;rounded=1;fontColor=#393C56;" vertex="1" parent="182">
                    <mxGeometry y="45" width="140" height="21" as="geometry"/>
                </mxCell>
                <mxCell id="185" value="+ link" style="text;strokeColor=none;fillColor=none;align=left;verticalAlign=top;spacingLeft=4;spacingRight=4;overflow=hidden;rotatable=0;points=[[0,0.5],[1,0.5]];portConstraint=eastwest;rounded=1;fontColor=#393C56;" vertex="1" parent="182">
                    <mxGeometry y="66" width="140" height="21" as="geometry"/>
                </mxCell>
                <mxCell id="186" value="+ paid" style="text;strokeColor=none;fillColor=none;align=left;verticalAlign=top;spacingLeft=4;spacingRight=4;overflow=hidden;rotatable=0;points=[[0,0.5],[1,0.5]];portConstraint=eastwest;rounded=1;fontColor=#393C56;" vertex="1" parent="182">
                    <mxGeometry y="87" width="140" height="21" as="geometry"/>
                </mxCell>
                <mxCell id="193" value="" style="line;strokeWidth=1;fillColor=none;align=left;verticalAlign=middle;spacingTop=-1;spacingLeft=3;spacingRight=3;rotatable=0;labelPosition=right;points=[];portConstraint=eastwest;" vertex="1" parent="182">
                    <mxGeometry y="108" width="140" height="8" as="geometry"/>
                </mxCell>
                <mxCell id="194" value="" style="text;strokeColor=#C73500;align=left;verticalAlign=top;spacingLeft=4;spacingRight=4;overflow=hidden;rotatable=0;points=[[0,0.5],[1,0.5]];portConstraint=eastwest;rounded=1;fontColor=#ffffff;shadow=0;fillColor=#F2CC8F;" vertex="1" parent="182">
                    <mxGeometry y="116" width="140" height="21" as="geometry"/>
                </mxCell>
                <mxCell id="196" style="edgeStyle=orthogonalEdgeStyle;rounded=0;orthogonalLoop=1;jettySize=auto;html=1;entryX=0;entryY=0.5;entryDx=0;entryDy=0;fillColor=#a20025;strokeColor=#6F0000;" edge="1" parent="1" source="206">
                    <mxGeometry relative="1" as="geometry">
                        <mxPoint x="810" y="468.5" as="targetPoint"/>
                        <mxPoint x="449.8599999999999" y="561.348" as="sourcePoint"/>
                        <Array as="points">
                            <mxPoint x="640" y="510"/>
                            <mxPoint x="640" y="468"/>
                        </Array>
                    </mxGeometry>
                </mxCell>
                <mxCell id="197" value="Has" style="text;html=1;align=center;verticalAlign=middle;whiteSpace=wrap;rounded=0;labelBackgroundColor=none;fontColor=#000000;" vertex="1" parent="1">
                    <mxGeometry x="640" y="435" width="40" height="25" as="geometry"/>
                </mxCell>
                <mxCell id="198" value="Sponsor" style="swimlane;fontStyle=0;childLayout=stackLayout;horizontal=1;startSize=26;horizontalStack=0;resizeParent=1;resizeParentMax=0;resizeLast=0;collapsible=1;marginBottom=0;rounded=1;strokeColor=#E07A5F;fontColor=#393C56;fillColor=#F2CC8F;" vertex="1" parent="1">
                    <mxGeometry x="220" y="-10" width="140" height="38" as="geometry"/>
                </mxCell>
                <mxCell id="199" style="edgeStyle=orthogonalEdgeStyle;rounded=0;orthogonalLoop=1;jettySize=auto;html=1;exitX=1;exitY=0.25;exitDx=0;exitDy=0;fillColor=#a20025;strokeColor=#6F0000;entryX=1.027;entryY=0.112;entryDx=0;entryDy=0;entryPerimeter=0;" edge="1" parent="1" source="34" target="182">
                    <mxGeometry relative="1" as="geometry">
                        <mxPoint x="370" y="119.5" as="sourcePoint"/>
                        <mxPoint x="920" y="370" as="targetPoint"/>
                        <Array as="points">
                            <mxPoint x="490" y="62"/>
                            <mxPoint x="490" y="40"/>
                            <mxPoint x="990" y="40"/>
                            <mxPoint x="990" y="395"/>
                        </Array>
                    </mxGeometry>
                </mxCell>
                <mxCell id="200" style="edgeStyle=orthogonalEdgeStyle;rounded=0;orthogonalLoop=1;jettySize=auto;html=1;exitX=1;exitY=0.5;exitDx=0;exitDy=0;fillColor=#a20025;strokeColor=#6F0000;entryX=1.015;entryY=0.78;entryDx=0;entryDy=0;entryPerimeter=0;" edge="1" parent="1" source="198" target="183">
                    <mxGeometry relative="1" as="geometry">
                        <mxPoint x="370" y="81.00000000000023" as="sourcePoint"/>
                        <mxPoint x="980" y="420" as="targetPoint"/>
                        <Array as="points">
                            <mxPoint x="1020" y="9"/>
                            <mxPoint x="1020" y="420"/>
                            <mxPoint x="1000" y="420"/>
                        </Array>
                    </mxGeometry>
                </mxCell>
                <mxCell id="201" value="Pay" style="text;html=1;align=center;verticalAlign=middle;whiteSpace=wrap;rounded=0;labelBackgroundColor=none;fontColor=#000000;" vertex="1" parent="1">
                    <mxGeometry x="660" y="-25" width="40" height="25" as="geometry"/>
                </mxCell>
                <mxCell id="202" value="Create" style="text;html=1;align=center;verticalAlign=middle;whiteSpace=wrap;rounded=0;labelBackgroundColor=none;fontColor=#000000;" vertex="1" parent="1">
                    <mxGeometry x="660" y="14.5" width="40" height="25" as="geometry"/>
                </mxCell>
                <mxCell id="203" style="edgeStyle=orthogonalEdgeStyle;curved=0;rounded=1;sketch=0;orthogonalLoop=1;jettySize=auto;html=1;strokeColor=#522C23;fillColor=#F2CC8F;fontColor=#393C56;entryX=1.006;entryY=0.874;entryDx=0;entryDy=0;entryPerimeter=0;exitX=0;exitY=0.5;exitDx=0;exitDy=0;" edge="1" parent="1" source="198" target="uO5SS3xwyvJrLnkMRzuP-75">
                    <mxGeometry relative="1" as="geometry">
                        <mxPoint x="210" y="10" as="sourcePoint"/>
                        <mxPoint x="180" y="110" as="targetPoint"/>
                        <Array as="points">
                            <mxPoint x="190" y="9"/>
                            <mxPoint x="190" y="118"/>
                        </Array>
                    </mxGeometry>
                </mxCell>
                <mxCell id="209" value="" style="endArrow=none;dashed=1;html=1;fontColor=#000000;strokeColor=#000000;entryX=0.597;entryY=-0.073;entryDx=0;entryDy=0;entryPerimeter=0;" edge="1" parent="1" target="207">
                    <mxGeometry width="50" height="50" relative="1" as="geometry">
                        <mxPoint x="520" y="510" as="sourcePoint"/>
                        <mxPoint x="158.75" y="400" as="targetPoint"/>
                    </mxGeometry>
                </mxCell>
                <mxCell id="247" value="&lt;b&gt;FinderCollection&lt;/b&gt;" style="swimlane;fontStyle=0;align=center;verticalAlign=top;childLayout=stackLayout;horizontal=1;startSize=24;horizontalStack=0;resizeParent=1;resizeParentMax=0;resizeLast=0;collapsible=0;marginBottom=0;html=1;rounded=0;labelBackgroundColor=none;sketch=0;strokeColor=#E07A5F;fillColor=#F2CC8F;fontColor=#393C56;" vertex="1" parent="1">
                    <mxGeometry x="50" y="536" width="140" height="179" as="geometry"/>
                </mxCell>
                <mxCell id="248" value="+ user" style="text;strokeColor=none;fillColor=none;align=left;verticalAlign=top;spacingLeft=4;spacingRight=4;overflow=hidden;rotatable=0;points=[[0,0.5],[1,0.5]];portConstraint=eastwest;rounded=1;fontColor=#393C56;" vertex="1" parent="247">
                    <mxGeometry y="24" width="140" height="21" as="geometry"/>
                </mxCell>
                <mxCell id="249" value="+ keyWord" style="text;strokeColor=none;fillColor=none;align=left;verticalAlign=top;spacingLeft=4;spacingRight=4;overflow=hidden;rotatable=0;points=[[0,0.5],[1,0.5]];portConstraint=eastwest;rounded=1;fontColor=#393C56;" vertex="1" parent="247">
                    <mxGeometry y="45" width="140" height="21" as="geometry"/>
                </mxCell>
                <mxCell id="250" value="+ priceRange" style="text;strokeColor=none;fillColor=none;align=left;verticalAlign=top;spacingLeft=4;spacingRight=4;overflow=hidden;rotatable=0;points=[[0,0.5],[1,0.5]];portConstraint=eastwest;rounded=1;fontColor=#393C56;" vertex="1" parent="247">
                    <mxGeometry y="66" width="140" height="21" as="geometry"/>
                </mxCell>
                <mxCell id="251" value="+ dateRange" style="text;strokeColor=none;fillColor=none;align=left;verticalAlign=top;spacingLeft=4;spacingRight=4;overflow=hidden;rotatable=0;points=[[0,0.5],[1,0.5]];portConstraint=eastwest;rounded=1;fontColor=#393C56;" vertex="1" parent="247">
                    <mxGeometry y="87" width="140" height="21" as="geometry"/>
                </mxCell>
                <mxCell id="254" value="+ results" style="text;strokeColor=none;fillColor=none;align=left;verticalAlign=top;spacingLeft=4;spacingRight=4;overflow=hidden;rotatable=0;points=[[0,0.5],[1,0.5]];portConstraint=eastwest;rounded=1;fontColor=#393C56;" vertex="1" parent="247">
                    <mxGeometry y="108" width="140" height="21" as="geometry"/>
                </mxCell>
                <mxCell id="255" value="+ timestamp" style="text;strokeColor=none;fillColor=none;align=left;verticalAlign=top;spacingLeft=4;spacingRight=4;overflow=hidden;rotatable=0;points=[[0,0.5],[1,0.5]];portConstraint=eastwest;rounded=1;fontColor=#393C56;" vertex="1" parent="247">
                    <mxGeometry y="129" width="140" height="21" as="geometry"/>
                </mxCell>
                <mxCell id="252" value="" style="line;strokeWidth=1;fillColor=none;align=left;verticalAlign=middle;spacingTop=-1;spacingLeft=3;spacingRight=3;rotatable=0;labelPosition=right;points=[];portConstraint=eastwest;" vertex="1" parent="247">
                    <mxGeometry y="150" width="140" height="8" as="geometry"/>
                </mxCell>
                <mxCell id="253" value="" style="text;strokeColor=#C73500;align=left;verticalAlign=top;spacingLeft=4;spacingRight=4;overflow=hidden;rotatable=0;points=[[0,0.5],[1,0.5]];portConstraint=eastwest;rounded=1;fontColor=#ffffff;shadow=0;fillColor=#F2CC8F;" vertex="1" parent="247">
                    <mxGeometry y="158" width="140" height="21" as="geometry"/>
                </mxCell>
                <mxCell id="256" style="edgeStyle=orthogonalEdgeStyle;rounded=0;orthogonalLoop=1;jettySize=auto;html=1;fillColor=#a20025;strokeColor=#6F0000;exitX=1;exitY=0.5;exitDx=0;exitDy=0;" edge="1" parent="1" source="254">
                    <mxGeometry relative="1" as="geometry">
                        <mxPoint x="370" y="460" as="targetPoint"/>
                        <mxPoint x="370" y="460" as="sourcePoint"/>
                        <Array as="points">
                            <mxPoint x="280" y="654"/>
                            <mxPoint x="280" y="460"/>
                        </Array>
                    </mxGeometry>
                </mxCell>
                <mxCell id="257" value="Includes" style="text;html=1;align=center;verticalAlign=middle;whiteSpace=wrap;rounded=0;labelBackgroundColor=none;fontColor=#000000;" vertex="1" parent="1">
                    <mxGeometry x="227.75" y="550" width="40" height="25" as="geometry"/>
                </mxCell>
                <mxCell id="230" value="&lt;b&gt;ConfigParams&lt;/b&gt;" style="swimlane;fontStyle=0;align=center;verticalAlign=top;childLayout=stackLayout;horizontal=1;startSize=24;horizontalStack=0;resizeParent=1;resizeParentMax=0;resizeLast=0;collapsible=0;marginBottom=0;html=1;rounded=0;labelBackgroundColor=none;sketch=0;strokeColor=#E07A5F;fillColor=#F2CC8F;fontColor=#393C56;" vertex="1" parent="1">
                    <mxGeometry x="800" y="134" width="140" height="116" as="geometry"/>
                </mxCell>
                <mxCell id="231" value="+ finderTimeCache" style="text;strokeColor=none;fillColor=none;align=left;verticalAlign=top;spacingLeft=4;spacingRight=4;overflow=hidden;rotatable=0;points=[[0,0.5],[1,0.5]];portConstraint=eastwest;rounded=1;fontColor=#393C56;" vertex="1" parent="230">
                    <mxGeometry y="24" width="140" height="21" as="geometry"/>
                </mxCell>
                <mxCell id="232" value="+ finderMaxNum" style="text;strokeColor=none;fillColor=none;align=left;verticalAlign=top;spacingLeft=4;spacingRight=4;overflow=hidden;rotatable=0;points=[[0,0.5],[1,0.5]];portConstraint=eastwest;rounded=1;fontColor=#393C56;" vertex="1" parent="230">
                    <mxGeometry y="45" width="140" height="21" as="geometry"/>
                </mxCell>
                <mxCell id="233" value="+ sponsorshipFlatRate" style="text;strokeColor=none;fillColor=none;align=left;verticalAlign=top;spacingLeft=4;spacingRight=4;overflow=hidden;rotatable=0;points=[[0,0.5],[1,0.5]];portConstraint=eastwest;rounded=1;fontColor=#393C56;" vertex="1" parent="230">
                    <mxGeometry y="66" width="140" height="21" as="geometry"/>
                </mxCell>
                <mxCell id="245" value="" style="line;strokeWidth=1;fillColor=none;align=left;verticalAlign=middle;spacingTop=-1;spacingLeft=3;spacingRight=3;rotatable=0;labelPosition=right;points=[];portConstraint=eastwest;" vertex="1" parent="230">
                    <mxGeometry y="87" width="140" height="8" as="geometry"/>
                </mxCell>
                <mxCell id="246" value="" style="text;strokeColor=#C73500;align=left;verticalAlign=top;spacingLeft=4;spacingRight=4;overflow=hidden;rotatable=0;points=[[0,0.5],[1,0.5]];portConstraint=eastwest;rounded=1;fontColor=#ffffff;shadow=0;fillColor=#F2CC8F;" vertex="1" parent="230">
                    <mxGeometry y="95" width="140" height="21" as="geometry"/>
                </mxCell>
                <mxCell id="260" style="edgeStyle=orthogonalEdgeStyle;rounded=0;orthogonalLoop=1;jettySize=auto;html=1;exitX=1;exitY=0.75;exitDx=0;exitDy=0;fillColor=#a20025;strokeColor=#6F0000;entryX=0.5;entryY=0;entryDx=0;entryDy=0;" edge="1" parent="1" source="34" target="230">
                    <mxGeometry relative="1" as="geometry">
                        <mxPoint x="370" y="81" as="sourcePoint"/>
                        <mxPoint x="860" y="130" as="targetPoint"/>
                        <Array as="points">
                            <mxPoint x="510" y="81"/>
                            <mxPoint x="510" y="60"/>
                            <mxPoint x="870" y="60"/>
                        </Array>
                    </mxGeometry>
                </mxCell>
                <mxCell id="261" value="Edit" style="text;html=1;align=center;verticalAlign=middle;whiteSpace=wrap;rounded=0;labelBackgroundColor=none;fontColor=#000000;" vertex="1" parent="1">
                    <mxGeometry x="870" y="75" width="40" height="25" as="geometry"/>
                </mxCell>
            </root>
        </mxGraphModel>
    </diagram>
</mxfile>